<?xml version="1.0" encoding="UTF-8" standalone="no"?>
<!DOCTYPE svg PUBLIC "-//W3C//DTD SVG 1.1//EN"
 "http://www.w3.org/Graphics/SVG/1.1/DTD/svg11.dtd">
<!-- Generated by graphviz version 2.40.1 (20161225.0304)
 -->
<!-- Title: dependency&#45;cruiser output Pages: 1 -->
<svg width="226pt" height="117pt"
 viewBox="0.00 0.00 226.00 117.00" xmlns="http://www.w3.org/2000/svg" xmlns:xlink="http://www.w3.org/1999/xlink">
<g id="graph0" class="graph" transform="scale(1 1) rotate(0) translate(4 113)">
<title>dependency&#45;cruiser output</title>
<polygon fill="#ffffff" stroke="transparent" points="-4,4 -4,-113 222,-113 222,4 -4,4"/>
<g id="clust1" class="cluster">
<title>cluster_src</title>
<path fill="#ffffff" stroke="#000000" stroke-width="2" d="M20,-15C20,-15 144,-15 144,-15 150,-15 156,-21 156,-27 156,-27 156,-89 156,-89 156,-95 150,-101 144,-101 144,-101 20,-101 20,-101 14,-101 8,-95 8,-89 8,-89 8,-27 8,-27 8,-21 14,-15 20,-15"/>
<text text-anchor="middle" x="82" y="-89.8" font-family="Helvetica,sans-Serif" font-weight="bold" font-size="9.00" fill="#000000">src</text>
</g>
<g id="clust2" class="cluster">
<title>cluster_src/util</title>
<path fill="#ffffff" stroke="#000000" stroke-width="2" d="M90,-23C90,-23 136,-23 136,-23 142,-23 148,-29 148,-35 148,-35 148,-63 148,-63 148,-69 142,-75 136,-75 136,-75 90,-75 90,-75 84,-75 78,-69 78,-63 78,-63 78,-35 78,-35 78,-29 84,-23 90,-23"/>
<text text-anchor="middle" x="113" y="-63.8" font-family="Helvetica,sans-Serif" font-weight="bold" font-size="9.00" fill="#000000">util</text>
</g>
<!-- fs -->
<g id="node1" class="node">
<title>fs</title>
<path fill="#ffffcc" stroke="#c0c0c0" d="M212,-49C212,-49 170,-49 170,-49 167,-49 164,-46 164,-43 164,-43 164,-37 164,-37 164,-34 167,-31 170,-31 170,-31 212,-31 212,-31 215,-31 218,-34 218,-37 218,-37 218,-43 218,-43 218,-46 215,-49 212,-49"/>
<text text-anchor="middle" x="191" y="-37.8" font-family="Helvetica,sans-Serif" font-size="9.00" fill="#c0c0c0">fs</text>
</g>
<!-- path -->
<g id="node2" class="node">
<title>path</title>
<path fill="#ffffcc" stroke="#c0c0c0" d="M212,-18C212,-18 170,-18 170,-18 167,-18 164,-15 164,-12 164,-12 164,-6 164,-6 164,-3 167,0 170,0 170,0 212,0 212,0 215,0 218,-3 218,-6 218,-6 218,-12 218,-12 218,-15 215,-18 212,-18"/>
<text text-anchor="middle" x="191" y="-6.8" font-family="Helvetica,sans-Serif" font-size="9.00" fill="#c0c0c0">path</text>
</g>
<!-- src/server.ts -->
<g id="node3" class="node">
<title>src/server.ts</title>
<g id="a_node3"><a xlink:href="src/server.ts" xlink:title="server.ts">
<path fill="#ddfeff" stroke="#000000" d="M64,-45C64,-45 22,-45 22,-45 19,-45 16,-42 16,-39 16,-39 16,-33 16,-33 16,-30 19,-27 22,-27 22,-27 64,-27 64,-27 67,-27 70,-30 70,-33 70,-33 70,-39 70,-39 70,-42 67,-45 64,-45"/>
<text text-anchor="middle" x="43" y="-33.8" font-family="Helvetica,sans-Serif" font-size="9.00" fill="#000000">server.ts</text>
</a>
</g>
</g>
<!-- src/server.ts&#45;&gt;path -->
<g id="edge2" class="edge">
<title>src/server.ts&#45;&gt;path</title>
<path fill="none" stroke="#c0c0c0" d="M60.023,-26.8483C65.6056,-24.223 71.9355,-21.6322 78,-20 102.6469,-13.3666 131.2721,-10.6294 153.5446,-9.5441"/>
<polygon fill="#c0c0c0" stroke="#c0c0c0" points="153.7546,-13.0386 163.6076,-9.1438 153.4763,-6.0441 153.7546,-13.0386"/>
</g>
<!-- src/util/util.ts -->
<g id="node4" class="node">
<title>src/util/util.ts</title>
<g id="a_node4"><a xlink:href="src/util/util.ts" xlink:title="util.ts">
<path fill="#ddfeff" stroke="#000000" d="M134,-49C134,-49 92,-49 92,-49 89,-49 86,-46 86,-43 86,-43 86,-37 86,-37 86,-34 89,-31 92,-31 92,-31 134,-31 134,-31 137,-31 140,-34 140,-37 140,-37 140,-43 140,-43 140,-46 137,-49 134,-49"/>
<text text-anchor="middle" x="113" y="-37.8" font-family="Helvetica,sans-Serif" font-size="9.00" fill="#000000">util.ts</text>
</a>
</g>
</g>
<!-- src/server.ts&#45;&gt;src/util/util.ts -->
<g id="edge1" class="edge">
<title>src/server.ts&#45;&gt;src/util/util.ts</title>
<path fill="none" stroke="#000000" stroke-width="2" stroke-opacity="0.200000" d="M70.2643,-37.558C72.0061,-37.6575 73.7749,-37.7586 75.5522,-37.8601"/>
<polygon fill="#000000" fill-opacity="0.200000" stroke="#000000" stroke-width="2" stroke-opacity="0.200000" points="75.5116,-41.3634 85.695,-38.4397 75.911,-34.3748 75.5116,-41.3634"/>
</g>
<!-- src/util/util.ts&#45;&gt;fs -->
<g id="edge3" class="edge">
<title>src/util/util.ts&#45;&gt;fs</title>
<path fill="none" stroke="#c0c0c0" d="M140.2806,-40C144.5804,-40 149.0897,-40 153.5713,-40"/>
<polygon fill="#c0c0c0" stroke="#c0c0c0" points="153.8665,-43.5001 163.8665,-40 153.8665,-36.5001 153.8665,-43.5001"/>
</g>
<!-- src/util/util.ts&#45;&gt;path -->
<g id="edge4" class="edge">
<title>src/util/util.ts&#45;&gt;path</title>
<path fill="none" stroke="#c0c0c0" d="M135.9807,-30.8666C143.1216,-28.0286 151.1297,-24.8459 158.7789,-21.8058"/>
<polygon fill="#c0c0c0" stroke="#c0c0c0" points="160.1833,-25.014 168.1836,-18.0681 157.5979,-18.509 160.1833,-25.014"/>
</g>
</g>
</svg>
